<?xml version="1.0" standalone="no"?>
<!DOCTYPE svg PUBLIC "-//W3C//DTD SVG 20010904//EN"
 "http://www.w3.org/TR/2001/REC-SVG-20010904/DTD/svg10.dtd">
<svg version="1.0" xmlns="http://www.w3.org/2000/svg"
 width="356.000000pt" height="152.000000pt" viewBox="0 0 356.000000 152.000000"
 preserveAspectRatio="xMidYMid meet">
<metadata>
Created by potrace 1.16, written by Peter Selinger 2001-2019
</metadata>
<g transform="translate(0.000000,152.000000) scale(0.100000,-0.100000)"
fill="#000000" stroke="none">
<path d="M0 760 l0 -760 1780 0 1780 0 0 760 0 760 -1780 0 -1780 0 0 -760z
m525 320 c6 -69 13 -120 17 -115 3 6 10 63 13 128 l8 117 48 0 47 0 7 -77 c3
-43 9 -105 13 -138 l8 -60 7 100 c4 55 10 117 13 138 l6 37 50 0 c36 0 49 -4
45 -12 -2 -7 -15 -118 -28 -245 l-24 -233 -61 0 -62 0 -7 98 c-9 107 -19 97
-30 -30 l-7 -68 -58 0 -58 0 -6 38 c-3 20 -15 125 -26 232 -22 207 -28 241
-29 173 -1 -41 -2 -43 -31 -43 l-30 0 0 -200 0 -200 -50 0 -50 0 0 200 0 200
-30 0 c-29 0 -30 2 -30 45 l0 45 163 -2 162 -3 10 -125z m395 -115 l0 -245
-45 0 -45 0 0 245 0 245 45 0 45 0 0 -245z m247 212 c21 -21 26 -37 31 -96 l5
-71 -51 0 -51 0 -3 52 c-2 41 -7 54 -21 56 -16 3 -17 -7 -15 -150 3 -128 5
-153 18 -153 11 0 16 14 18 58 l3 57 51 0 50 0 -4 -75 c-3 -65 -7 -78 -30
-102 -21 -20 -39 -27 -82 -31 -53 -4 -57 -3 -91 31 l-36 36 3 180 c3 162 5
181 23 201 29 32 53 40 108 36 36 -2 56 -10 74 -29z m393 -12 c0 -43 -1 -45
-30 -45 l-30 0 0 -200 0 -200 -50 0 -50 0 0 200 0 200 -30 0 c-29 0 -30 2 -30
45 l0 45 110 0 110 0 0 -45z m220 0 l0 -45 -50 0 -50 0 0 -50 0 -50 45 0 45 0
0 -45 0 -45 -45 0 -45 0 0 -60 0 -60 50 0 50 0 0 -45 0 -45 -100 0 -100 0 0
245 0 245 100 0 100 0 0 -45z m235 28 c9 -9 21 -27 26 -40 14 -37 11 -125 -6
-157 -11 -20 -12 -33 -5 -40 6 -6 10 -59 10 -123 l0 -113 -45 0 -45 0 0 91 c0
87 -10 129 -30 129 -6 0 -10 -46 -10 -110 l0 -110 -50 0 -50 0 0 245 0 245 94
0 c75 0 98 -3 111 -17z m219 -10 c2 -16 10 -68 16 -118 7 -49 14 -97 17 -105
4 -11 40 192 43 243 0 4 34 7 75 7 l75 0 0 -245 0 -245 -45 0 -45 0 -1 153 -1
152 -25 -152 -25 -153 -44 0 c-37 0 -44 3 -48 23 -6 24 -43 235 -49 277 -3 14
-5 -48 -6 -137 l-1 -163 -45 0 -45 0 0 245 0 245 74 0 c73 0 74 0 80 -27z
m356 -218 l0 -245 -45 0 -45 0 0 245 0 245 45 0 45 0 0 -245z m162 146 c9 -51
19 -96 22 -98 2 -3 4 40 3 96 l-2 101 48 0 47 0 0 -245 0 -245 -48 0 -49 0
-20 103 -21 102 -1 -102 -1 -103 -50 0 -50 0 0 246 0 245 52 -3 53 -3 17 -94z
m362 62 c3 -21 12 -114 21 -208 8 -93 17 -187 20 -207 l5 -38 -50 0 -50 0 0
40 c0 38 -2 40 -30 40 -28 0 -30 -2 -30 -40 l0 -40 -51 0 -52 0 6 58 c3 31 13
141 23 245 l17 187 83 0 82 0 6 -37z m166 -168 l0 -205 50 0 50 0 0 -40 0 -40
-100 0 -100 0 0 245 0 245 50 0 50 0 0 -205z m-2970 -432 c-12 -21 -36 -62
-52 -90 l-30 -53 38 -67 c20 -38 44 -78 52 -90 l14 -23 -74 0 -74 0 -23 43
c-13 23 -37 63 -52 88 l-29 46 52 91 53 92 73 0 74 0 -22 -37z m490 27 c0 -5
-4 -10 -10 -10 -5 0 -10 -4 -10 -9 0 -5 -18 -41 -41 -80 l-40 -70 41 -75 c23
-42 46 -78 51 -82 31 -19 -10 -24 -195 -24 l-203 0 -52 91 -52 91 53 89 53 89
203 0 c128 0 202 -4 202 -10z m450 -27 c-12 -21 -36 -62 -52 -90 l-30 -53 38
-67 c20 -38 44 -78 52 -90 l14 -23 -205 0 -205 0 -51 90 -52 90 52 90 51 90
205 0 205 0 -22 -37z m480 27 c0 -5 -20 -44 -45 -86 -25 -41 -45 -79 -45 -84
0 -4 20 -43 45 -86 25 -44 45 -82 45 -86 0 -5 -89 -8 -199 -8 l-199 0 -51 90
-52 90 52 90 51 90 199 0 c122 0 199 -4 199 -10z m1690 3 c0 -5 -20 -43 -45
-87 -25 -43 -45 -82 -45 -86 0 -4 20 -43 45 -86 25 -44 45 -82 45 -86 0 -5
-364 -8 -809 -8 l-810 0 -50 90 -51 90 38 68 c21 37 45 77 53 90 l14 22 807 0
c445 0 808 -3 808 -7z"/>
<path d="M2262 538 c-7 -7 -12 -28 -12 -48 0 -27 8 -43 30 -65 29 -28 40 -65
20 -65 -5 0 -10 9 -10 21 0 15 -5 20 -22 17 -18 -2 -22 -8 -20 -28 2 -14 9
-31 14 -37 11 -14 56 -17 74 -5 35 23 22 103 -21 136 -25 19 -34 46 -15 46 6
0 10 -7 10 -15 0 -8 9 -15 20 -15 14 0 20 7 20 23 0 30 -18 47 -50 47 -14 0
-31 -5 -38 -12z"/>
<path d="M2380 435 l0 -115 44 0 c39 0 44 3 48 25 4 21 1 25 -18 25 -19 0 -24
5 -24 25 0 18 5 25 20 25 13 0 20 7 20 20 0 13 -7 20 -20 20 -13 0 -20 7 -20
20 0 13 7 20 20 20 15 0 20 7 20 25 0 23 -4 25 -45 25 l-45 0 0 -115z"/>
<path d="M2500 435 l0 -115 25 0 c22 0 24 4 28 58 l3 57 2 -57 c2 -54 4 -58
27 -58 l24 0 -1 103 c0 56 -5 108 -10 115 -6 6 -30 12 -54 12 l-44 0 0 -115z"/>
<path d="M2624 533 c2 -10 7 -45 10 -78 14 -132 15 -135 47 -135 22 0 30 5 33
23 5 23 26 184 26 199 0 4 -11 8 -25 8 -24 0 -25 -3 -26 -62 -1 -47 -3 -57 -9
-38 -4 14 -8 42 -9 63 -1 33 -4 37 -27 37 -19 0 -24 -4 -20 -17z"/>
<path d="M2842 538 c-16 -16 -16 -190 0 -206 17 -17 64 -15 82 4 9 8 16 31 16
50 0 31 -3 35 -22 32 -17 -2 -24 -11 -26 -31 -2 -15 -8 -25 -13 -22 -12 8 -12
132 1 140 6 4 10 -5 10 -19 0 -21 5 -26 25 -26 20 0 25 5 25 26 0 43 -17 64
-53 64 -18 0 -38 -5 -45 -12z"/>
<path d="M2960 435 l0 -115 45 0 c41 0 45 2 45 25 0 18 -5 25 -20 25 -15 0
-20 7 -20 25 0 18 5 25 20 25 13 0 20 7 20 20 0 13 -7 20 -20 20 -13 0 -20 7
-20 20 0 13 7 20 20 20 15 0 20 7 20 25 0 23 -4 25 -45 25 l-45 0 0 -115z"/>
<path d="M3092 538 c-7 -7 -12 -28 -12 -48 0 -27 8 -43 30 -65 29 -28 40 -65
20 -65 -5 0 -10 9 -10 19 0 21 -21 33 -39 22 -20 -13 -2 -70 24 -77 37 -9 59
-1 73 29 18 37 10 67 -28 107 -16 18 -30 37 -30 44 0 6 7 3 14 -6 19 -26 46
-23 46 5 0 30 -18 47 -50 47 -14 0 -31 -5 -38 -12z"/>
</g>
</svg>
